<?xml version="1.0" encoding="iso-8859-1"?>
<!-- Generator: Adobe Illustrator 17.1.0, SVG Export Plug-In . SVG Version: 6.00 Build 0)  -->
<!DOCTYPE svg PUBLIC "-//W3C//DTD SVG 1.1//EN" "http://www.w3.org/Graphics/SVG/1.1/DTD/svg11.dtd">
<svg version="1.1" id="my-svg-logo" xmlns="http://www.w3.org/2000/svg" xmlns:xlink="http://www.w3.org/1999/xlink" x="0px" y="0px"
	 viewBox="0 0 349.93 100.4" style="enable-background:new 0 0 349.93 100.4;" xml:space="preserve">
<g>
	<polygon class="st0" points="94.36,17.02 79.18,48.64 96.62,79.08 61.86,74.41 38.31,100.4 32,65.9 0,51.53 30.87,34.87 34.64,0 
		60.03,24.21 	"/>
	<g>
		<g>
			<path d="M80.15,40.1c0-0.67-0.15-1.18-0.46-1.53c-0.32-0.33-0.89-0.49-1.7-0.49v-0.89c2.02,0.2,3.88,0.3,5.6,0.3
				c2.37,0,4.41-0.1,6.14-0.3v0.89c-1.1,0.06-1.83,0.34-2.18,0.82c-0.38,0.52-0.55,1.13-0.52,1.83V63.7h8.81
				c1.51,0,2.66-0.4,3.43-1.2c0.77-0.81,1.33-2.11,1.68-3.9h1.11c-0.62,3.1-0.99,6.2-1.11,9.31H78v-0.89
				c1.47-0.03,2.19-0.7,2.15-2.02V40.1z"/>
			<path class="st1" d="M89.74,37.19v0.89c-1.1,0.06-1.83,0.34-2.18,0.82c-0.38,0.52-0.55,1.13-0.52,1.83V63.7h8.81
				c1.51,0,2.66-0.4,3.43-1.2c0.77-0.81,1.33-2.11,1.68-3.9h1.11c-0.62,3.1-0.99,6.2-1.11,9.31H78v-0.89
				c1.47-0.03,2.19-0.7,2.15-2.02V40.1c0-0.67-0.15-1.18-0.46-1.53c-0.32-0.33-0.89-0.49-1.7-0.49v-0.89c2.02,0.2,3.88,0.3,5.6,0.3
				C85.96,37.49,88.01,37.39,89.74,37.19 M102.07,58.61L102.07,58.61 M91.74,34.94L89.5,35.2c-1.64,0.19-3.63,0.29-5.91,0.29
				c-1.64,0-3.45-0.1-5.4-0.29L76,34.98v2.21v0.89v2h2c0.06,0,0.11,0,0.15,0c0,0,0,0.01,0,0.01v24.91c0,0,0,0.01,0,0.01
				c-0.05,0.01-0.12,0.01-0.2,0.01L76,65.07v1.96v0.89v2h2h22.96h1.92l0.07-1.92c0.12-2.99,0.48-6.01,1.08-8.99l0.48-2.39h-2.44
				h-0.01h-1.11h-1.65l-0.32,1.62c-0.34,1.74-0.82,2.54-1.17,2.9c-0.36,0.38-1.03,0.57-1.98,0.57h-6.81V40.73v-0.05l0-0.05
				c-0.01-0.22,0.02-0.35,0.07-0.45c0.11-0.04,0.33-0.09,0.74-0.11l1.89-0.11v-1.89v-0.89V34.94L91.74,34.94z"/>
		</g>
		<g>
			<path d="M126.77,57.06c-0.03,3.33-1.08,6.06-3.16,8.2c-2.12,2.22-4.9,3.36-8.34,3.42c-3.76-0.09-6.54-1.41-8.34-3.94
				c-1.79-2.47-2.68-5.16-2.68-8.06c0.03-3.39,1.11-6.16,3.25-8.3c2.04-2.19,4.79-3.3,8.25-3.33c3.77,0.09,6.56,1.38,8.36,3.84
				C125.88,51.38,126.77,54.1,126.77,57.06z M110.57,55.24c0,0.88,0.1,1.85,0.3,2.93c0.12,1.09,0.36,2.13,0.73,3.12
				c0.44,1,1,1.82,1.68,2.46c0.68,0.67,1.58,1.01,2.71,1.01c0.77,0,1.44-0.19,2-0.59c0.56-0.34,1.02-0.8,1.39-1.38
				c0.71-1.25,1.07-2.58,1.07-3.99c0-0.92-0.06-1.95-0.18-3.07c-0.12-1.09-0.4-2.12-0.84-3.07c-0.36-1-0.89-1.82-1.57-2.46
				c-0.74-0.61-1.68-0.91-2.8-0.91c-1.53,0.03-2.65,0.69-3.37,1.97C110.94,52.47,110.57,53.8,110.57,55.24z"/>
			<path class="st1" d="M115.75,45.06c3.77,0.09,6.56,1.38,8.36,3.84c1.77,2.47,2.66,5.19,2.66,8.16c-0.03,3.33-1.08,6.06-3.16,8.2
				c-2.12,2.22-4.9,3.36-8.34,3.42c-3.76-0.09-6.54-1.41-8.34-3.94c-1.79-2.47-2.68-5.16-2.68-8.06c0.03-3.39,1.11-6.16,3.25-8.3
				C109.54,46.21,112.29,45.1,115.75,45.06 M115.99,64.75c0.77,0,1.44-0.19,2-0.59c0.56-0.34,1.02-0.8,1.39-1.38
				c0.71-1.25,1.07-2.58,1.07-3.99c0-0.92-0.06-1.95-0.18-3.07c-0.12-1.09-0.4-2.12-0.84-3.07c-0.36-1-0.89-1.82-1.57-2.46
				c-0.74-0.61-1.68-0.91-2.8-0.91c-1.53,0.03-2.65,0.69-3.37,1.97c-0.74,1.22-1.11,2.55-1.11,3.99c0,0.88,0.1,1.85,0.3,2.93
				c0.12,1.09,0.36,2.13,0.73,3.12c0.44,1,1,1.82,1.68,2.46C113.96,64.42,114.86,64.75,115.99,64.75 M115.76,43.06l-0.03,0
				c-3.99,0.04-7.25,1.36-9.67,3.94c-2.49,2.51-3.78,5.76-3.81,9.67c0,3.34,1.03,6.45,3.06,9.25c2.17,3.05,5.51,4.65,9.91,4.76
				l0.04,0l0.04,0c3.98-0.07,7.26-1.43,9.75-4.04c2.42-2.5,3.68-5.72,3.71-9.57c0-3.4-1.02-6.54-3.03-9.34
				c-2.19-3-5.53-4.57-9.94-4.68L115.76,43.06L115.76,43.06z M113.45,60.53c-0.29-0.81-0.49-1.68-0.6-2.59l-0.01-0.07l-0.01-0.07
				c-0.17-0.95-0.26-1.82-0.26-2.57c0-1.07,0.27-2.04,0.82-2.94l0.02-0.03l0.02-0.04c0.31-0.55,0.71-0.92,1.66-0.94
				c0.58,0,1.07,0.14,1.44,0.42c0.43,0.42,0.76,0.96,1.01,1.64l0.03,0.08l0.03,0.08c0.35,0.75,0.57,1.58,0.67,2.45
				c0.11,1.04,0.17,2,0.17,2.85c0,1.05-0.26,2.02-0.78,2.95c-0.2,0.3-0.43,0.53-0.72,0.71l-0.05,0.03l-0.05,0.03
				c-0.14,0.1-0.38,0.23-0.86,0.23c-0.77,0-1.11-0.25-1.3-0.43C114.18,61.85,113.78,61.26,113.45,60.53L113.45,60.53z"/>
		</g>
		<g>
			<path d="M153.51,49.07l-3.02,0.19c0.52,0.94,0.77,1.95,0.77,3.04c-0.06,2.97-1.11,5.09-3.14,6.38c-2.02,1.29-4.34,1.91-6.95,1.88
				c-1.46,0-2.54-0.1-3.26-0.3c-0.71-0.16-1.25-0.31-1.59-0.47c-0.52,0.16-0.87,0.38-1.07,0.67c-0.21,0.31-0.32,0.59-0.32,0.84
				c-0.03,0.45,0.25,0.8,0.85,1.05c0.56,0.33,1.76,0.49,3.59,0.49h5.86c5.78,0.03,8.7,2.05,8.76,6.05
				c-0.06,2.69-1.36,4.73-3.91,6.14c-2.55,1.44-5.51,2.16-8.89,2.16c-2.41-0.03-4.39-0.48-5.95-1.33c-1.58-0.83-2.38-1.94-2.41-3.34
				c0-0.58,0.11-1.14,0.32-1.68l5.67-1.54c-0.18,0.55-0.26,1.19-0.23,1.92c-0.03,0.67,0.29,1.31,0.98,1.92
				c0.65,0.64,1.75,0.98,3.3,1.01c1.58-0.03,2.87-0.34,3.87-0.92c0.96-0.55,1.45-1.29,1.48-2.21c0-1.07-0.47-1.77-1.4-2.12
				c-0.96-0.36-2.54-0.53-4.74-0.49c-1.97,0-3.62,0.04-4.97,0.12c-2.63-0.03-4.52-0.55-5.68-1.55c-1.18-0.95-1.75-2.23-1.72-3.84
				c0-0.52,0.11-1.02,0.33-1.52c0.19-0.52,0.53-0.9,1.02-1.15l3.67-1.73c-0.91-0.8-1.58-1.71-2.02-2.74
				c-0.42-1.02-0.63-1.98-0.63-2.88c0.03-2.69,0.99-4.7,2.88-6.05c1.83-1.31,4.2-1.97,7.1-1.97c1.36,0.03,2.76,0.2,4.2,0.49
				c1.42,0.34,2.65,0.53,3.7,0.56c1.36,0,2.88-0.17,4.56-0.52L153.51,49.07z M138.13,52.51c0,1.32,0.38,2.39,1.15,3.19
				c0.71,0.8,1.6,1.21,2.69,1.21c1.2,0,2.1-0.4,2.69-1.21c0.56-0.71,0.84-1.6,0.84-2.67c-0.03-1.54-0.4-2.7-1.11-3.48
				c-0.72-0.77-1.63-1.16-2.73-1.16c-0.99,0-1.81,0.34-2.46,1.02C138.49,50.09,138.13,51.12,138.13,52.51z"/>
			<path class="st1" d="M142.07,45.06c1.36,0.03,2.76,0.2,4.2,0.49c1.42,0.34,2.65,0.53,3.7,0.56c1.36,0,2.88-0.17,4.56-0.52
				l-1.02,3.47l-3.02,0.19c0.52,0.94,0.77,1.95,0.77,3.04c-0.06,2.97-1.11,5.09-3.14,6.38c-1.97,1.26-4.23,1.88-6.76,1.88
				c-0.06,0-0.13,0-0.19,0c-1.46,0-2.54-0.1-3.26-0.3c-0.71-0.16-1.25-0.31-1.59-0.47c-0.52,0.16-0.87,0.38-1.07,0.67
				c-0.21,0.31-0.32,0.59-0.32,0.84c-0.03,0.45,0.25,0.8,0.85,1.05c0.56,0.33,1.76,0.49,3.59,0.49h5.86
				c5.78,0.03,8.7,2.05,8.76,6.05c-0.06,2.69-1.36,4.73-3.91,6.14c-2.55,1.44-5.51,2.16-8.89,2.16c-2.41-0.03-4.39-0.48-5.95-1.33
				c-1.58-0.83-2.38-1.94-2.41-3.34c0-0.58,0.11-1.14,0.32-1.68l5.67-1.54c-0.18,0.55-0.26,1.19-0.23,1.92
				c-0.03,0.67,0.29,1.31,0.98,1.92c0.65,0.64,1.75,0.98,3.3,1.01c1.58-0.03,2.87-0.34,3.87-0.92c0.96-0.55,1.45-1.29,1.48-2.21
				c0-1.07-0.47-1.77-1.4-2.12c-0.89-0.33-2.29-0.5-4.22-0.5c-0.17,0-0.34,0-0.51,0c-1.97,0-3.62,0.04-4.97,0.12
				c-2.63-0.03-4.52-0.55-5.68-1.55c-1.18-0.95-1.75-2.23-1.72-3.84c0-0.52,0.11-1.02,0.33-1.52c0.19-0.52,0.53-0.9,1.02-1.15
				l3.67-1.73c-0.91-0.8-1.58-1.71-2.02-2.74c-0.42-1.02-0.63-1.98-0.63-2.88c0.03-2.69,0.99-4.7,2.88-6.05
				C136.8,45.72,139.17,45.06,142.07,45.06 M141.97,56.9c1.2,0,2.1-0.4,2.69-1.21c0.56-0.71,0.84-1.6,0.84-2.67
				c-0.03-1.54-0.4-2.7-1.11-3.48c-0.72-0.77-1.63-1.16-2.73-1.16c-0.99,0-1.81,0.34-2.46,1.02c-0.71,0.68-1.06,1.71-1.06,3.1
				c0,1.32,0.38,2.39,1.15,3.19C139.99,56.5,140.89,56.9,141.97,56.9 M138.81,69.28L138.81,69.28 M157.39,42.98l-3.26,0.67
				c-1.53,0.31-2.92,0.47-4.13,0.47c-0.9-0.03-1.99-0.2-3.26-0.51l-0.03-0.01l-0.03-0.01c-1.55-0.32-3.08-0.5-4.56-0.53l-0.02,0
				h-0.02c-3.32,0-6.1,0.79-8.27,2.34c-2.43,1.72-3.68,4.3-3.72,7.65c0,1.19,0.26,2.42,0.79,3.67c0.19,0.44,0.41,0.87,0.66,1.28
				l-1.32,0.63l-0.03,0.01l-0.03,0.01c-0.92,0.47-1.59,1.22-1.96,2.18c-0.32,0.74-0.48,1.5-0.48,2.28c-0.04,2.17,0.8,4.04,2.43,5.38
				c0.41,0.35,0.87,0.65,1.39,0.91l-0.27,0.69c-0.3,0.77-0.45,1.58-0.45,2.41c0.03,1.54,0.66,3.64,3.48,5.11
				c1.81,0.99,4.13,1.52,6.86,1.56c3.74,0,7.06-0.81,9.9-2.41c3.14-1.73,4.85-4.45,4.93-7.84l0-0.04l0-0.04
				c-0.04-2.64-1.2-6.88-7.94-7.82c0.39-0.2,0.78-0.42,1.16-0.66c2.62-1.66,3.99-4.36,4.07-8.02c0-0.42-0.03-0.84-0.09-1.24
				l0.46-0.03l1.4-0.09l0.4-1.34l1.02-3.47L157.39,42.98L157.39,42.98z M141.97,54.9c-0.51,0-0.86-0.15-1.18-0.53l-0.03-0.03
				l-0.03-0.03c-0.26-0.27-0.6-0.75-0.6-1.81c0-0.56,0.08-1.3,0.44-1.65l0.03-0.03l0.03-0.03c0.19-0.2,0.46-0.4,1.01-0.4
				c0.55,0,0.93,0.16,1.27,0.52c0.35,0.38,0.55,1.13,0.57,2.15c0,0.58-0.13,1.05-0.41,1.4l-0.02,0.03l-0.02,0.03
				C142.95,54.64,142.76,54.9,141.97,54.9L141.97,54.9z M140.6,70.39c0.47-0.01,0.97-0.01,1.48-0.01c0.19,0,0.36,0,0.51,0
				c2.21,0,3.15,0.23,3.52,0.37c0.04,0.01,0.06,0.03,0.08,0.03c0.01,0.03,0.02,0.09,0.02,0.18c-0.01,0.11-0.05,0.27-0.48,0.51
				c-0.7,0.41-1.67,0.62-2.88,0.65c-1.42-0.03-1.84-0.37-1.9-0.43l-0.03-0.03l-0.04-0.03c-0.23-0.2-0.3-0.34-0.32-0.37l0-0.09
				l0-0.05C140.57,70.85,140.57,70.61,140.6,70.39L140.6,70.39z"/>
		</g>
		<g>
			<path d="M180.16,57.06c-0.03,3.33-1.08,6.06-3.16,8.2c-2.12,2.22-4.9,3.36-8.34,3.42c-3.76-0.09-6.54-1.41-8.34-3.94
				c-1.79-2.47-2.68-5.16-2.68-8.06c0.03-3.39,1.11-6.16,3.25-8.3c2.04-2.19,4.79-3.3,8.25-3.33c3.77,0.09,6.56,1.38,8.36,3.84
				C179.27,51.38,180.16,54.1,180.16,57.06z M163.96,55.24c0,0.88,0.1,1.85,0.3,2.93c0.12,1.09,0.36,2.13,0.73,3.12
				c0.44,1,1,1.82,1.68,2.46c0.68,0.67,1.58,1.01,2.71,1.01c0.77,0,1.44-0.19,2-0.59c0.56-0.34,1.02-0.8,1.39-1.38
				c0.71-1.25,1.07-2.58,1.07-3.99c0-0.92-0.06-1.95-0.18-3.07c-0.12-1.09-0.4-2.12-0.84-3.07c-0.36-1-0.89-1.82-1.57-2.46
				c-0.74-0.61-1.68-0.91-2.8-0.91c-1.53,0.03-2.65,0.69-3.37,1.97C164.33,52.47,163.96,53.8,163.96,55.24z"/>
			<path class="st1" d="M169.14,45.06c3.77,0.09,6.56,1.38,8.36,3.84c1.77,2.47,2.66,5.19,2.66,8.16c-0.03,3.33-1.08,6.06-3.16,8.2
				c-2.12,2.22-4.9,3.36-8.34,3.42c-3.76-0.09-6.54-1.41-8.34-3.94c-1.79-2.47-2.68-5.16-2.68-8.06c0.03-3.39,1.11-6.16,3.25-8.3
				C162.93,46.21,165.68,45.1,169.14,45.06 M169.38,64.75c0.77,0,1.44-0.19,2-0.59c0.56-0.34,1.02-0.8,1.39-1.38
				c0.71-1.25,1.07-2.58,1.07-3.99c0-0.92-0.06-1.95-0.18-3.07c-0.12-1.09-0.4-2.12-0.84-3.07c-0.36-1-0.89-1.82-1.57-2.46
				c-0.74-0.61-1.68-0.91-2.8-0.91c-1.53,0.03-2.65,0.69-3.37,1.97c-0.74,1.22-1.11,2.55-1.11,3.99c0,0.88,0.1,1.85,0.3,2.93
				c0.12,1.09,0.36,2.13,0.73,3.12c0.44,1,1,1.82,1.68,2.46C167.35,64.42,168.25,64.75,169.38,64.75 M169.15,43.06l-0.03,0
				c-3.99,0.04-7.25,1.36-9.67,3.94c-2.49,2.51-3.78,5.76-3.81,9.67c0,3.34,1.03,6.45,3.06,9.25c2.17,3.05,5.51,4.65,9.91,4.76
				l0.04,0l0.04,0c3.98-0.07,7.26-1.43,9.75-4.04c2.42-2.5,3.68-5.72,3.71-9.57c0-3.4-1.02-6.54-3.03-9.34
				c-2.19-3-5.53-4.57-9.94-4.68L169.15,43.06L169.15,43.06z M166.84,60.53c-0.29-0.81-0.49-1.68-0.6-2.59l-0.01-0.07l-0.01-0.07
				c-0.17-0.95-0.26-1.82-0.26-2.57c0-1.07,0.27-2.04,0.82-2.94l0.02-0.03l0.02-0.04c0.31-0.55,0.71-0.92,1.66-0.94
				c0.58,0,1.07,0.14,1.44,0.42c0.43,0.42,0.76,0.96,1.01,1.64l0.03,0.08l0.03,0.08c0.35,0.75,0.57,1.58,0.67,2.45
				c0.11,1.04,0.17,2,0.17,2.85c0,1.05-0.26,2.02-0.78,2.95c-0.2,0.3-0.43,0.53-0.72,0.71l-0.05,0.03l-0.05,0.03
				c-0.14,0.1-0.38,0.23-0.86,0.23c-0.77,0-1.11-0.25-1.3-0.43C167.57,61.85,167.17,61.26,166.84,60.53L166.84,60.53z"/>
		</g>
		<g>
			<path d="M199.85,46.66c2.48-1.03,5.28-1.56,8.38-1.59c2.79-0.03,5.14,0.49,7.06,1.55c0.92,0.61,1.65,1.46,2.18,2.53
				c0.53,1.13,0.79,2.56,0.79,4.29v11.57c0.03,1.56,0.84,2.33,2.42,2.3v0.89c-1.39-0.19-2.77-0.28-4.13-0.28
				c-1.27,0-2.62,0.09-4.04,0.28v-3.63l-0.09,0.05c-1.12,1.66-2.3,2.76-3.54,3.3c-1.3,0.55-2.93,0.8-4.88,0.77
				c-2.01-0.03-3.64-0.64-4.88-1.83c-1.27-1.19-1.92-2.82-1.95-4.9c0-1.63,0.36-2.94,1.07-3.94c0.62-0.95,1.46-1.69,2.52-2.2
				c1.06-0.52,2.17-0.88,3.34-1.1c1.15-0.22,2.24-0.38,3.27-0.49c2.08-0.25,3.39-0.5,3.95-0.75c0.46-0.27,0.67-0.73,0.64-1.41
				c-0.03-1.25-0.45-2.13-1.25-2.63c-0.83-0.48-1.83-0.73-2.98-0.73c-1.8,0-3.25,0.31-4.32,0.92c-1.09,0.64-2.04,1.82-2.84,3.54
				h-0.89L199.85,46.66z M211.94,56.97c-3.32,0.55-5.58,1.16-6.76,1.83c-1.17,0.7-1.74,1.62-1.71,2.74c0,0.95,0.33,1.67,0.98,2.16
				c0.62,0.52,1.4,0.77,2.32,0.77c1.21,0,2.37-0.52,3.46-1.55c1.11-0.95,1.68-2.19,1.71-3.7V56.97z"/>
			<path class="st1" d="M208.47,45.06c2.68,0,4.96,0.52,6.83,1.55c0.92,0.61,1.65,1.46,2.18,2.53c0.53,1.13,0.79,2.56,0.79,4.29
				v11.57c0.03,1.53,0.81,2.3,2.33,2.3c0.03,0,0.06,0,0.09,0v0.89c-1.39-0.19-2.77-0.28-4.13-0.28c-1.27,0-2.62,0.09-4.04,0.28
				v-3.63l-0.09,0.05c-1.12,1.66-2.3,2.76-3.54,3.3c-1.23,0.52-2.76,0.78-4.57,0.78c-0.1,0-0.21,0-0.31,0
				c-2.01-0.03-3.64-0.64-4.88-1.83c-1.27-1.19-1.92-2.82-1.95-4.9c0-1.63,0.36-2.94,1.07-3.94c0.62-0.95,1.46-1.69,2.52-2.2
				c1.06-0.52,2.17-0.88,3.34-1.1c1.15-0.22,2.24-0.38,3.27-0.49c2.08-0.25,3.39-0.5,3.95-0.75c0.46-0.27,0.67-0.73,0.64-1.41
				c-0.03-1.25-0.45-2.13-1.25-2.63c-0.83-0.48-1.83-0.73-2.98-0.73c-1.8,0-3.25,0.31-4.32,0.92c-1.09,0.64-2.04,1.82-2.84,3.54
				h-0.89l0.18-6.52c2.48-1.03,5.28-1.56,8.38-1.59C208.31,45.06,208.39,45.06,208.47,45.06 M206.78,64.47
				c1.21,0,2.37-0.52,3.46-1.55c1.11-0.95,1.68-2.19,1.71-3.7v-2.25c-3.32,0.55-5.58,1.16-6.76,1.83c-1.17,0.7-1.74,1.62-1.71,2.74
				c0,0.95,0.33,1.67,0.98,2.16C205.08,64.22,205.85,64.47,206.78,64.47 M208.47,43.06l-0.26,0c-3.35,0.03-6.42,0.62-9.13,1.75
				l-1.2,0.5l-0.04,1.29l-0.18,6.52l-0.06,2.06h0.48c-0.58,0.5-1.09,1.07-1.52,1.72c-0.94,1.34-1.41,3.04-1.41,5.06
				c0.04,2.66,0.91,4.79,2.59,6.36c1.59,1.52,3.69,2.33,6.22,2.37c0.12,0,0.23,0,0.34,0c2.07,0,3.87-0.31,5.34-0.93
				c0.29-0.13,0.58-0.28,0.86-0.45v1.16l2.26-0.3c1.33-0.18,2.6-0.26,3.78-0.26c1.27,0,2.57,0.09,3.87,0.26l2.27,0.3V68.2v-0.89
				v-2.04l-2.04,0.04l-0.05,0c-0.14,0-0.24-0.01-0.3-0.02c-0.01-0.06-0.03-0.16-0.03-0.32l0-11.53c0-2.02-0.33-3.75-0.98-5.14
				c-0.7-1.43-1.67-2.55-2.89-3.35l-0.07-0.04l-0.07-0.04C214.1,43.67,211.48,43.06,208.47,43.06L208.47,43.06z M202.96,52.92
				c0.46-0.74,0.95-1.27,1.45-1.56c0.74-0.42,1.86-0.64,3.31-0.64c0.78,0,1.42,0.14,1.94,0.44c0.16,0.11,0.24,0.38,0.27,0.65
				c-0.48,0.11-1.33,0.26-2.81,0.43c-1.05,0.11-2.21,0.29-3.41,0.51C203.46,52.8,203.21,52.86,202.96,52.92L202.96,52.92z
				 M206.19,60.53c0.44-0.24,1.46-0.67,3.74-1.15c-0.05,0.83-0.37,1.49-1,2.03l-0.03,0.03l-0.03,0.03c-0.71,0.67-1.4,1-2.09,1
				c-0.6,0-0.88-0.18-1.04-0.31l-0.04-0.03l-0.04-0.03c-0.06-0.04-0.17-0.13-0.17-0.55v-0.03l0-0.03
				C205.47,61.31,205.46,60.97,206.19,60.53L206.19,60.53z"/>
		</g>
		<g>
			<path d="M242.13,61.05c-0.03,1.5-0.36,2.75-0.98,3.75c-0.68,0.98-1.55,1.76-2.61,2.34c-1.04,0.58-2.14,0.98-3.29,1.19
				c-1.18,0.23-2.3,0.35-3.36,0.35c-3.03-0.06-5.52-0.61-7.47-1.64c-0.09-2.2-0.19-4.39-0.29-6.59h0.89
				c0.68,1.72,1.67,3.01,2.97,3.87c1.27,0.88,2.76,1.31,4.47,1.31c0.92,0,1.81-0.27,2.66-0.82c0.8-0.52,1.22-1.32,1.25-2.42
				c0-0.56-0.17-1.01-0.5-1.34c-0.32-0.31-0.79-0.57-1.41-0.77c-1.24-0.34-2.67-0.68-4.31-1.01c-0.74-0.19-1.47-0.44-2.2-0.75
				c-0.74-0.3-1.42-0.69-2.04-1.17c-1.3-0.92-1.96-2.41-2-4.46c0.03-2.88,1.12-4.93,3.26-6.15c2.04-1.13,4.53-1.69,7.46-1.69
				c1.98,0,3.87,0.3,5.67,0.91c0.15,2.16,0.29,4.31,0.43,6.42h-0.89c-0.59-1.49-1.47-2.55-2.65-3.16c-1.18-0.57-2.52-0.85-4.03-0.85
				c-0.8,0-1.56,0.16-2.29,0.47c-0.77,0.39-1.17,0.98-1.2,1.78c0,0.58,0.2,1.03,0.61,1.34c0.33,0.33,0.79,0.62,1.38,0.87
				c0.62,0.19,1.3,0.35,2.04,0.49c0.71,0.19,1.44,0.39,2.2,0.61c0.8,0.19,1.57,0.43,2.31,0.73c0.77,0.31,1.44,0.75,2,1.3
				c0.62,0.52,1.08,1.18,1.38,1.98C241.95,58.83,242.13,59.86,242.13,61.05z"/>
			<path class="st1" d="M234.64,45.06c1.98,0,3.87,0.3,5.67,0.91c0.15,2.16,0.29,4.31,0.43,6.42h-0.89
				c-0.59-1.49-1.47-2.55-2.65-3.16c-1.18-0.57-2.52-0.85-4.03-0.85c-0.8,0-1.56,0.16-2.29,0.47c-0.77,0.39-1.17,0.98-1.2,1.78
				c0,0.58,0.2,1.03,0.61,1.34c0.33,0.33,0.79,0.62,1.38,0.87c0.62,0.19,1.3,0.35,2.04,0.49c0.71,0.19,1.44,0.39,2.2,0.61
				c0.8,0.19,1.57,0.43,2.31,0.73c0.77,0.31,1.44,0.75,2,1.3c0.62,0.52,1.08,1.18,1.38,1.98c0.35,0.86,0.52,1.89,0.52,3.09
				c-0.03,1.5-0.36,2.75-0.98,3.75c-0.68,0.98-1.55,1.76-2.61,2.34c-1.04,0.58-2.14,0.98-3.29,1.19c-1.18,0.23-2.3,0.35-3.36,0.35
				c-3.03-0.06-5.52-0.61-7.47-1.64c-0.09-2.2-0.19-4.39-0.29-6.59h0.89c0.68,1.72,1.67,3.01,2.97,3.87
				c1.27,0.88,2.76,1.31,4.47,1.31c0.92,0,1.81-0.27,2.66-0.82c0.8-0.52,1.22-1.32,1.25-2.42c0-0.56-0.17-1.01-0.5-1.34
				c-0.32-0.31-0.79-0.57-1.41-0.77c-1.24-0.34-2.67-0.68-4.31-1.01c-0.74-0.19-1.47-0.44-2.2-0.75c-0.74-0.3-1.42-0.69-2.04-1.17
				c-1.3-0.92-1.96-2.41-2-4.46c0.03-2.88,1.12-4.93,3.26-6.15C229.23,45.63,231.71,45.06,234.64,45.06 M234.64,43.06
				c-3.26,0-6.09,0.65-8.43,1.94c-1.95,1.11-4.25,3.36-4.3,7.88l0,0.03l0,0.03c0.04,2.82,1.1,4.52,2.19,5.53h-2.08l0.1,2.1
				c0.11,2.19,0.2,4.38,0.29,6.57l0.05,1.15l1.02,0.54c2.22,1.17,5.03,1.8,8.36,1.87c0,0,0,0,0.01,0c1.22,0,2.48-0.13,3.78-0.39
				c1.34-0.26,2.65-0.73,3.87-1.41c1.32-0.72,2.43-1.71,3.28-2.95l0.03-0.04l0.03-0.04c0.81-1.3,1.24-2.91,1.28-4.76
				c0-1.49-0.22-2.78-0.67-3.87c-0.4-1.06-1.04-1.98-1.89-2.71c-0.04-0.04-0.08-0.07-0.12-0.11h1.42l-0.14-2.13
				c-0.14-2.12-0.28-4.27-0.43-6.43l-0.09-1.33l-1.26-0.43C238.95,43.41,236.83,43.06,234.64,43.06L234.64,43.06z M231.8,50.65
				c0.44-0.17,0.89-0.26,1.38-0.26c1.19,0,2.24,0.21,3.14,0.64c0.53,0.28,0.96,0.72,1.32,1.33c-0.4-0.12-0.8-0.23-1.2-0.33
				c-0.75-0.22-1.49-0.42-2.19-0.61l-0.07-0.02l-0.07-0.01c-0.63-0.12-1.21-0.26-1.73-0.41C232.08,50.85,231.9,50.73,231.8,50.65
				L231.8,50.65z M232.46,63.64c-1.31,0-2.4-0.31-3.34-0.96c-0.83-0.55-1.47-1.3-1.96-2.31c0.01,0,0.02,0.01,0.03,0.01
				c0.81,0.35,1.65,0.63,2.48,0.84l0.05,0.01l0.05,0.01c1.56,0.32,2.95,0.64,4.12,0.96c0.25,0.08,0.4,0.16,0.49,0.21
				c-0.03,0.53-0.21,0.64-0.33,0.72C233.51,63.48,233,63.64,232.46,63.64L232.46,63.64z"/>
		</g>
		<g>
			<path d="M260.69,57.35c1.15,5.16,4.31,7.72,9.48,7.69c0.71,0,1.47-0.08,2.29-0.23c0.77-0.12,1.48-0.35,2.13-0.68
				c0.68-0.31,1.23-0.76,1.66-1.34c0.41-0.58,0.61-1.3,0.61-2.16c0-0.73-0.14-1.34-0.41-1.83c-0.32-0.48-0.74-0.88-1.27-1.2
				c-1.08-0.58-2.19-1.02-3.34-1.31l-3.29-1.01c-2.48-0.67-4.66-1.68-6.52-3.02c-1.92-1.34-2.92-3.39-2.98-6.14
				c0.06-3.67,1.51-6.23,4.36-7.67c1.33-0.78,2.83-1.33,4.48-1.64c1.64-0.25,3.33-0.38,5.07-0.38c3.01,0,5.9,0.51,8.66,1.52
				c0,3.42,0.12,6.38,0.36,8.88h-0.87c-0.49-2.2-1.55-3.85-3.21-4.95c-1.67-1.02-3.58-1.52-5.73-1.52c-0.56,0-1.2,0.05-1.91,0.14
				c-0.71,0.13-1.39,0.33-2.05,0.61c-0.65,0.3-1.17,0.7-1.57,1.2c-0.47,0.55-0.71,1.26-0.71,2.13c0.03,1.28,0.49,2.19,1.39,2.72
				c0.44,0.3,0.89,0.54,1.36,0.73c0.46,0.19,0.92,0.37,1.39,0.54l4.89,1.43c1.21,0.31,2.36,0.68,3.46,1.1
				c1.08,0.45,2.04,1.03,2.89,1.73c0.83,0.7,1.51,1.58,2.05,2.63c0.45,1.06,0.68,2.38,0.68,3.94c-0.06,3.17-1.39,5.58-4,7.22
				c-2.61,1.63-5.86,2.45-9.77,2.48c-3.5,0-6.86-0.58-10.09-1.73c0-3.8-0.12-7.09-0.36-9.89H260.69z"/>
			<path class="st1" d="M272.96,36.44c3.01,0,5.9,0.51,8.66,1.52c0,3.42,0.12,6.38,0.36,8.88h-0.87c-0.49-2.2-1.55-3.85-3.21-4.95
				c-1.67-1.02-3.58-1.52-5.73-1.52c-0.56,0-1.2,0.05-1.91,0.14c-0.71,0.13-1.39,0.33-2.05,0.61c-0.65,0.3-1.17,0.7-1.57,1.2
				c-0.47,0.55-0.71,1.26-0.71,2.13c0.03,1.28,0.49,2.19,1.39,2.72c0.44,0.3,0.89,0.54,1.36,0.73c0.46,0.19,0.92,0.37,1.39,0.54
				l4.89,1.43c1.21,0.31,2.36,0.68,3.46,1.1c1.08,0.45,2.04,1.03,2.89,1.73c0.83,0.7,1.51,1.58,2.05,2.63
				c0.45,1.06,0.68,2.38,0.68,3.94c-0.06,3.17-1.39,5.58-4,7.22c-2.61,1.63-5.86,2.45-9.77,2.48c-3.5,0-6.86-0.58-10.09-1.73
				c0-3.8-0.12-7.09-0.36-9.89h0.87c1.14,5.12,4.27,7.69,9.39,7.69c0.03,0,0.06,0,0.09,0c0.71,0,1.47-0.08,2.29-0.23
				c0.77-0.12,1.48-0.35,2.13-0.68c0.68-0.31,1.23-0.76,1.66-1.34c0.41-0.58,0.61-1.3,0.61-2.16c0-0.73-0.14-1.34-0.41-1.83
				c-0.32-0.48-0.74-0.88-1.27-1.2c-1.08-0.58-2.19-1.02-3.34-1.31l-3.29-1.01c-2.48-0.67-4.66-1.68-6.52-3.02
				c-1.92-1.34-2.92-3.39-2.98-6.14c0.06-3.67,1.51-6.23,4.36-7.67c1.33-0.78,2.83-1.33,4.48-1.64
				C269.53,36.56,271.22,36.44,272.96,36.44 M272.96,34.44c-1.83,0-3.64,0.13-5.37,0.4l-0.04,0.01l-0.03,0.01
				c-1.85,0.35-3.55,0.97-5.06,1.85c-2.43,1.24-5.31,3.88-5.41,9.39l0,0.04l0,0.04c0.08,3.41,1.36,6.01,3.83,7.74
				c2.02,1.46,4.42,2.58,7.11,3.31l3.26,1l0.04,0.01l0.04,0.01c0.97,0.25,1.93,0.63,2.85,1.12c0.23,0.14,0.4,0.3,0.54,0.49
				c0.06,0.12,0.13,0.36,0.13,0.8c0,0.44-0.08,0.77-0.25,1c-0.2,0.27-0.49,0.5-0.86,0.67l-0.03,0.02l-0.03,0.02
				c-0.47,0.23-0.99,0.4-1.55,0.49l-0.03,0l-0.03,0.01c-0.69,0.13-1.33,0.2-1.91,0.2l-0.09,0c-4.2,0-6.49-1.89-7.44-6.12l-0.35-1.57
				h-1.6h-0.87h-2.18l0.19,2.17c0.23,2.73,0.35,6,0.35,9.72v1.41l1.33,0.47c3.43,1.23,7.05,1.85,10.76,1.85
				c4.28-0.03,7.92-0.97,10.83-2.79c3.16-1.99,4.87-5.06,4.94-8.88c0-1.86-0.28-3.45-0.84-4.76l-0.03-0.06l-0.03-0.06
				c-0.65-1.28-1.51-2.38-2.54-3.25c-1.01-0.84-2.15-1.52-3.4-2.05l-0.03-0.01l-0.03-0.01c-1.15-0.44-2.37-0.83-3.65-1.16l-4.79-1.4
				c-0.42-0.16-0.84-0.32-1.25-0.49c-0.35-0.14-0.69-0.32-1-0.53l-0.05-0.03l-0.05-0.03c-0.13-0.07-0.39-0.23-0.41-1.04
				c0-0.53,0.17-0.72,0.22-0.78l0.03-0.03l0.03-0.03c0.19-0.25,0.47-0.45,0.83-0.61c0.46-0.2,0.98-0.35,1.52-0.45
				c0.61-0.08,1.15-0.12,1.61-0.12c1.78,0,3.31,0.4,4.66,1.21c1.2,0.8,1.96,2.01,2.33,3.69l0.35,1.57h1.61h0.87h2.2l-0.21-2.19
				c-0.23-2.42-0.35-5.34-0.35-8.69v-1.4l-1.31-0.48C279.34,34.99,276.2,34.44,272.96,34.44L272.96,34.44z"/>
		</g>
		<g>
			<path d="M285.63,37.19c2.08,0.2,4.13,0.3,6.18,0.3c2.09,0,4.16-0.1,6.2-0.3v0.89c-1.77,0.09-2.63,0.69-2.57,1.78
				c-0.06,0.03,0.16,0.84,0.66,2.44l5.77,17.65h0.09l5.82-17.65c0.3-0.7,0.47-1.61,0.5-2.72c0-0.58-0.18-0.95-0.54-1.1
				c-0.41-0.17-0.97-0.3-1.68-0.4v-0.89c1.68,0.2,3.35,0.3,5.02,0.3c1.68,0,3.36-0.1,5.02-0.3v0.89c-0.8,0.13-1.37,0.37-1.7,0.73
				c-0.35,0.42-0.66,1.05-0.93,1.88l-9.84,27.52h-5.66l-9.54-26.69c-0.23-0.74-0.54-1.45-0.93-2.16c-0.47-0.67-1.09-1.09-1.86-1.27
				V37.19z"/>
			<path class="st1" d="M316.1,37.19v0.89c-0.8,0.13-1.37,0.37-1.7,0.73c-0.35,0.42-0.66,1.05-0.93,1.88l-9.84,27.52h-5.66
				l-9.54-26.69c-0.23-0.74-0.54-1.45-0.93-2.16c-0.47-0.67-1.09-1.09-1.86-1.27v-0.89c2.08,0.2,4.13,0.3,6.18,0.3
				c2.09,0,4.16-0.1,6.2-0.3v0.89c-1.77,0.09-2.63,0.69-2.57,1.78c-0.06,0.03,0.16,0.84,0.66,2.44l5.77,17.65h0.09l5.82-17.65
				c0.3-0.7,0.47-1.61,0.5-2.72c0-0.58-0.18-0.95-0.54-1.1c-0.41-0.17-0.97-0.3-1.68-0.4v-0.89c1.68,0.2,3.35,0.3,5.02,0.3
				C312.76,37.49,314.43,37.39,316.1,37.19 M318.1,34.93l-2.24,0.27c-1.58,0.19-3.19,0.29-4.78,0.29c-1.58,0-3.19-0.1-4.78-0.29
				l-2.24-0.27v2.26v0.89v1.75l1.74,0.23c0.17,0.02,0.32,0.05,0.45,0.07c-0.06,0.69-0.19,1.12-0.3,1.38l-0.04,0.08l-0.03,0.08
				l-3.95,12L298,41.68c-0.24-0.76-0.38-1.24-0.46-1.54c0.14-0.03,0.33-0.05,0.58-0.06l1.89-0.1v-1.9v-0.89v-2.21l-2.2,0.22
				c-1.97,0.2-3.99,0.29-6,0.29c-1.97,0-3.98-0.1-5.98-0.3l-2.19-0.21v2.21v0.89v1.6l1.57,0.35c0.26,0.06,0.44,0.17,0.61,0.39
				c0.3,0.55,0.54,1.11,0.71,1.67l0.01,0.04l0.01,0.04l9.54,26.69l0.47,1.33h1.41h5.66h1.41l0.47-1.33l9.84-27.52l0.01-0.02
				l0.01-0.02c0.2-0.61,0.38-0.94,0.49-1.11c0.08-0.03,0.25-0.09,0.55-0.14l1.69-0.26v-1.71v-0.89V34.93L318.1,34.93z"/>
		</g>
		<g>
			<path d="M338.86,56.92c0-0.92-0.22-1.52-0.65-1.78c-0.47-0.22-1.22-0.31-2.26-0.28v-1.17c1.88,0.19,3.79,0.28,5.74,0.28
				c2.09,0,4.17-0.09,6.24-0.28v1.08c-0.77-0.03-1.38,0.13-1.81,0.47c-0.44,0.36-0.66,1.09-0.66,2.18V68.2h-2.68l-1.09-3.07
				c-2.94,2.63-5.99,3.91-9.15,3.84c-4.44-0.06-7.91-1.62-10.42-4.66c-2.57-2.94-3.88-6.62-3.91-11.04
				c0.03-5.27,1.58-9.39,4.66-12.38c3.01-2.94,7.06-4.42,12.15-4.45c3.31-0.03,6.3,0.66,8.97,2.06c0,2.36,0.09,5.21,0.27,8.54h-1.16
				c-0.35-2.15-1.32-3.75-2.93-4.81c-1.62-1.05-3.44-1.57-5.45-1.57c-3.22,0.06-5.62,1.18-7.2,3.36c-1.62,2.14-2.43,4.83-2.43,8.07
				c0,3.11,0.78,5.91,2.33,8.38c1.51,2.55,3.61,3.86,6.3,3.92c3.37-0.06,5.08-1.32,5.12-3.78V56.92z"/>
			<path class="st1" d="M335.23,36.44c3.23,0,6.15,0.69,8.75,2.07c0,2.36,0.09,5.21,0.27,8.54h-1.16c-0.35-2.15-1.32-3.75-2.93-4.81
				c-1.62-1.05-3.44-1.57-5.45-1.57c-3.22,0.06-5.62,1.18-7.2,3.36c-1.62,2.14-2.43,4.83-2.43,8.07c0,3.11,0.78,5.91,2.33,8.38
				c1.51,2.55,3.61,3.86,6.3,3.92c3.37-0.06,5.08-1.32,5.12-3.78v-3.67c0-0.92-0.22-1.52-0.65-1.78c-0.41-0.19-1.04-0.29-1.88-0.29
				c-0.12,0-0.25,0-0.38,0.01v-1.17c1.88,0.19,3.79,0.28,5.74,0.28c2.09,0,4.17-0.09,6.24-0.28v1.08c-0.06,0-0.13,0-0.19,0
				c-0.68,0-1.22,0.16-1.62,0.47c-0.44,0.36-0.66,1.09-0.66,2.18V68.2h-2.68l-1.09-3.07c-2.87,2.56-5.85,3.85-8.93,3.85
				c-0.07,0-0.15,0-0.22,0c-4.44-0.06-7.91-1.62-10.42-4.66c-2.57-2.94-3.88-6.62-3.91-11.04c0.03-5.27,1.58-9.39,4.66-12.38
				c3.01-2.94,7.06-4.42,12.15-4.45C335.09,36.44,335.16,36.44,335.23,36.44 M335.23,34.44l-0.23,0
				c-5.59,0.03-10.14,1.72-13.53,5.02c-3.46,3.36-5.23,8-5.26,13.8c0.03,4.91,1.51,9.06,4.38,12.35c2.89,3.49,6.9,5.3,11.92,5.37
				c0.08,0,0.16,0,0.25,0c2.75,0,5.42-0.86,7.97-2.57l0.16,0.46l0.47,1.33h1.41h2.68h2v-2V57.42c0-0.3,0.02-0.51,0.05-0.64
				c0.06-0.01,0.14-0.01,0.24-0.01l0.11,0l2.08,0.08v-2.08v-1.08V51.5l-2.18,0.2c-2,0.18-4.04,0.27-6.06,0.27
				c-1.88,0-3.74-0.09-5.55-0.27l-2.2-0.22v2.21v1.17v2.06l2.06-0.06c0.11,0,0.21,0,0.32,0c0.22,0,0.39,0.01,0.54,0.02
				c0,0.02,0,0.03,0,0.05v3.67c-0.01,0.62-0.03,1.72-3.12,1.78c-1.98-0.06-3.43-0.99-4.59-2.94l-0.01-0.02l-0.01-0.02
				c-1.36-2.17-2.03-4.56-2.03-7.31c0-2.82,0.66-5.06,2.02-6.87c1.22-1.68,3.06-2.51,5.64-2.56c1.6,0,3.02,0.41,4.32,1.25
				c1.11,0.74,1.78,1.87,2.04,3.46l0.27,1.68h1.7h1.16h2.11l-0.11-2.11c-0.18-3.28-0.27-6.12-0.27-8.43V37.3l-1.07-0.56
				C342.03,35.21,338.77,34.44,335.23,34.44L335.23,34.44z"/>
		</g>
	</g>
</g>
</svg>
