<?xml version="1.0" encoding="iso-8859-1"?>
<!-- Generator: Adobe Illustrator 17.1.0, SVG Export Plug-In . SVG Version: 6.00 Build 0)  -->
<!DOCTYPE svg PUBLIC "-//W3C//DTD SVG 1.1//EN" "http://www.w3.org/Graphics/SVG/1.1/DTD/svg11.dtd">
<svg version="1.1" id="Layer_1" xmlns="http://www.w3.org/2000/svg" xmlns:xlink="http://www.w3.org/1999/xlink" x="0px" y="0px"
	 viewBox="0 0 321.35 86.52" style="enable-background:new 0 0 321.35 86.52;" xml:space="preserve">
<style type="text/css">
	.st0{fill:#1C75BC;}
</style>
<path class="st0" d="M3.38,73.64c0.13,6.51,5.44,11.76,11.99,11.76h17.52L21,71.67L3.38,73.64z"/>
<path class="st0" d="M39.34,3.37H15.37c-5.6,0-10.3,3.85-11.62,9.04l20.46,4.76L39.34,3.37z"/>
<path class="st0" d="M307.1,3.37H53.39l2.24,26.1l33.13,18.85L53.65,63.15l-4.58,22.24H307.1c6.63,0,12-5.37,12-12V15.37
	C319.1,8.74,313.73,3.37,307.1,3.37z M119.77,55.66c-1.84,1.45-4.2,2.18-7.08,2.18c-3.33,0-5.81-0.7-7.45-2.09
	c-1.59-1.36-2.39-3.39-2.39-6.1v-0.23h5.04c-0.07,1.45,0.32,2.58,1.16,3.38s2.06,1.2,3.63,1.2c1.38,0,2.52-0.33,3.43-0.98
	s1.37-1.48,1.37-2.48c0-0.66-0.28-1.2-0.84-1.62c-0.56-0.42-1.59-0.86-3.07-1.32l-3.18-0.97c-2.48-0.76-4.23-1.64-5.25-2.64
	c-1.02-1-1.53-2.33-1.53-3.99c0-2.32,0.85-4.22,2.54-5.7s3.87-2.22,6.53-2.22c2.99,0,5.28,0.66,6.87,1.97
	c1.48,1.21,2.21,2.85,2.21,4.92l-0.02,0.54h-5.04c-0.04-1.14-0.41-2.02-1.11-2.65s-1.68-0.95-2.91-0.95c-1.16,0-2.11,0.3-2.88,0.91
	c-0.76,0.6-1.15,1.36-1.15,2.26c0,0.76,0.35,1.4,1.05,1.92c0.7,0.5,1.98,1.04,3.83,1.6l3.18,0.97c2.12,0.64,3.62,1.46,4.49,2.44
	c0.88,0.97,1.32,2.32,1.32,4.04C122.53,52.34,121.61,54.21,119.77,55.66z M139.94,57.35h-2.71h-2.71l-9.35-24.77h2.78h2.78
	l6.75,19.21h0.01l6.76-19.21h2.53h2.53L139.94,57.35z M159.26,51.71c1.29,1.54,3.17,2.3,5.64,2.3c1.29,0,2.7-0.19,4.23-0.58v-5.5
	h-4.79V44.1h9.89v12.38c-2.93,0.91-5.9,1.37-8.9,1.37c-4.27,0-7.51-1.09-9.73-3.28c-2.22-2.19-3.33-5.38-3.33-9.59
	c0-3.95,1.11-7.08,3.32-9.4s5.2-3.48,8.96-3.48c3.25,0,5.7,0.71,7.37,2.14s2.5,3.52,2.5,6.28h-5.04c-0.02-1.61-0.42-2.77-1.2-3.5
	c-0.78-0.73-2.01-1.09-3.68-1.09c-2.3,0-4.07,0.79-5.32,2.36c-1.25,1.57-1.87,3.8-1.87,6.7C157.32,47.93,157.97,50.17,159.26,51.71z
	 M206.86,55.44v1.92h-15.43V32.58h2.55h2.55v20.94h10.34V55.44z M230.13,54.57c-1.95,2.19-4.79,3.28-8.54,3.28
	c-3.74,0-6.58-1.09-8.53-3.28s-2.93-5.38-2.93-9.59s0.98-7.41,2.93-9.6s4.8-3.29,8.53-3.29c3.75,0,6.6,1.1,8.54,3.29
	s2.92,5.39,2.92,9.6S232.07,52.38,230.13,54.57z M244.23,51.71c1.29,1.54,3.17,2.3,5.64,2.3c1.29,0,2.7-0.19,4.24-0.58v-5.5h-4.79
	V44.1h9.89v12.38c-2.93,0.91-5.89,1.37-8.9,1.37c-4.27,0-7.51-1.09-9.73-3.28s-3.33-5.38-3.33-9.59c0-3.95,1.11-7.08,3.32-9.4
	s5.2-3.48,8.96-3.48c3.25,0,5.7,0.71,7.37,2.14c1.67,1.42,2.5,3.52,2.5,6.28h-5.04c-0.02-1.61-0.42-2.77-1.2-3.5
	s-2.01-1.09-3.68-1.09c-2.3,0-4.07,0.79-5.32,2.36s-1.87,3.8-1.87,6.7C242.3,47.93,242.94,50.17,244.23,51.71z M283.9,54.57
	c-1.95,2.19-4.79,3.28-8.54,3.28c-3.74,0-6.58-1.09-8.53-3.28s-2.93-5.38-2.93-9.59s0.98-7.41,2.93-9.6s4.8-3.29,8.53-3.29
	c3.75,0,6.6,1.1,8.54,3.29s2.92,5.39,2.92,9.6S285.85,52.38,283.9,54.57z"/>
</svg>
